<svg xmlns="http://www.w3.org/2000/svg" viewBox="0 0 222.23 222.62"><defs><style>.cls-1{fill:#010101;}.cls-2{fill:#ae7043;}</style></defs><title>Asset 6</title><g id="Layer_2" data-name="Layer 2"><g id="Layer_1-2" data-name="Layer 1"><path class="cls-1" d="M103.1,84c-1-.26-2-.5-3-.72-1.17-.26-2.34-.48-3.52-.68,1.11-.4,2.22-.84,3.29-1.33s1.86-.87,2.76-1.36a42.52,42.52,0,1,0-40.35,0c.9.49,1.81,1,2.75,1.36s2.17.94,3.29,1.33c-1.18.2-2.35.44-3.52.69-1,.22-2,.47-3,.72A82.54,82.54,0,0,0,0,163.8a3.94,3.94,0,1,0,7.87,0,74.52,74.52,0,0,1,122.29-57.23l7.89-3.53A81.78,81.78,0,0,0,103.1,84ZM47.78,42.52A34.65,34.65,0,1,1,82.42,77.16,34.7,34.7,0,0,1,47.78,42.52Z"/><path class="cls-2" d="M222.05,131.83a.55.55,0,0,1-.07-.24,3.15,3.15,0,0,0-.36-.74c-.06-.12-.18-.23-.18-.36-.18-.12-.31-.36-.55-.49-.06-.12-.19-.12-.31-.25s-.13-.12-.24-.24-.25-.12-.37-.12-.12-.13-.18-.25l-57.38-25.57a4,4,0,0,0-3.37,0l-57.45,25.57c-.06.12-.12.25-.19.25s-.23.12-.36.12-.12.12-.24.24-.25.13-.31.25-.3.37-.49.49-.12.24-.19.36a6.28,6.28,0,0,0-.36.74l-.13.24a3.81,3.81,0,0,0-.11,1.1v59.84a4,4,0,0,0,2.38,3.79L159,222.13c.06.12.12,0,.19.12a3.13,3.13,0,0,0,1.46.37,3.26,3.26,0,0,0,1.53-.37c.06-.12.12,0,.19-.12l57.38-25.57a4.05,4.05,0,0,0,2.44-3.79V132.93A3.61,3.61,0,0,0,222.05,131.83Zm-61.36-19.94,17,7.46-47.28,21.18-17-7.6Zm-4.1,100.2-49.18-22V139.3l17.37,7.83,31.81,14.19Zm4.1-58-20.18-9.06L187.79,124,208,132.93Zm53.29,36-49.13,22V161.32l49.13-22Z"/></g></g></svg>