<svg xmlns="http://www.w3.org/2000/svg" viewBox="0 0 251.89 175.82"><defs><style>.cls-1{fill:#010101;}.cls-2{fill:#6bb52d;}</style></defs><title>Asset 3</title><g id="Layer_2" data-name="Layer 2"><g id="Layer_1-2" data-name="Layer 1"><path class="cls-1" d="M168.08,104.08l-8.78,8.78-1.13-1.12v7.61l-3.9,1.74,1.19,1.21.52.52a5.05,5.05,0,0,0,6.6,0l5.5-5.51,1.58-1.59V102.5Zm-.16-65.24a2,2,0,0,1-.14-.47.51.51,0,0,1-.07-.15,1.76,1.76,0,0,0-.17-.36l-.15-.22c0-.08-.12-.19-.19-.32l-.12-.14-.43-.22-.11-.21a1.73,1.73,0,0,1-.3-.25l-.05,0h-.67l-.33-.68L85.73.37a4,4,0,0,0-3.37,0L2.8,35.77a1.65,1.65,0,0,1-1,.65l-.08.06a1.84,1.84,0,0,1-.32.27l0,0L1.11,37a3.88,3.88,0,0,1-.34.38l-.22.41a2.63,2.63,0,0,0-.19.38c-.06.15-.12.3-.19.45l-.11.2a4.9,4.9,0,0,0-.06,1V123.1a4,4,0,0,0,2.34,3.81l80.52,35.84,0,.09a3.06,3.06,0,0,0,2.06.08l.17-.36.63-.05,34-15.14-6.25-6.26L88.19,152.44V78.29l71.56-32.08v61.71l8.33-8.32V39.81A3.08,3.08,0,0,0,167.92,38.84ZM84,8.77l27.58,12.11L41.84,52.11,14.26,39.81ZM79.87,152.44,8.22,120.38V46.21L34.66,58.12,79.87,78.29ZM84,71,52,56.66l69.69-31,32,14.15ZM131.91,142l-6.28-6.28-1.21-1.2-9,4,1.2,1.21,6.26,6.27,1.19,1.19,9.07-4Z"/><path class="cls-1" d="M124.42,134.47l-1.2-1.21-9,4.05,1.19,1.2,1.2,1.21,9-4.05Zm34.88-21.61-1.13-1.12-1.59-1.59v8.17l-3.5,1.58,1.19,1.19,1.19,1.21,4.29-1.92v-8Zm0,0-1.13-1.12-1.59-1.59v8.17l-3.5,1.58,1.19,1.19,1.19,1.21,4.29-1.92v-8Zm10.36-10.36-1.58,1.58v13.18l3.17-3.17V100.91Zm-36.55,40.64-1.2-1.19-9.06,4,2.4,2.4,9.06-4Zm-8.69-8.67-1.2-1.21-9,4.05,1.19,1.2,1.2,1.21,9-4.05Zm0,0-1.2-1.21-9,4.05,1.19,1.2,1.2,1.21,9-4.05Zm34.88-21.61-1.13-1.12-1.59-1.59v8.17l-3.5,1.58,1.19,1.19,1.19,1.21,4.29-1.92v-8Zm-34.88,21.61-1.2-1.21-9,4.05,1.19,1.2,1.2,1.21,9-4.05Z"/><path class="cls-2" d="M159.3,112.86l-1.13-1.12v7.61l-3.9,1.74,1.19,1.21.52.52a5.05,5.05,0,0,0,6.6,0l5.5-5.51V104.08Zm88-41.1-12.11-12a16.07,16.07,0,0,0-17.54-3.52,16.31,16.31,0,0,0-5.21,3.5l-41.16,41.16-1.59,1.59-1.58,1.58-8.78,8.78-1.13-1.12-1.59-1.59L135.25,88.8A15.91,15.91,0,0,0,124,84.27H124A16.1,16.1,0,0,0,112.6,88.8l-12.14,12a16.18,16.18,0,0,0,0,22.73l13.73,13.75,1.19,1.2,1.2,1.21,6.26,6.27,2.4,2.4,22.68,22.73a16.1,16.1,0,0,0,22.78,0l76.56-76.55a15.92,15.92,0,0,0,4.62-11.31A16.11,16.11,0,0,0,247.27,71.76ZM240.61,87.9,164,164.47a6.64,6.64,0,0,1-4.66,2h-.07a6.76,6.76,0,0,1-4.82-2l-20.17-20.13-1.2-1.2-1.2-1.19-6.28-6.28-1.21-1.2-1.2-1.21L107,117.1a7,7,0,0,1,0-9.61l12.16-12.06a6.26,6.26,0,0,1,4.72-2,6,6,0,0,1,4.93,2.06l24.28,24.36,1.19,1.19,1.19,1.21.52.52a5.05,5.05,0,0,0,6.6,0l5.5-5.51,3.17-3.17L219,66.22a7.07,7.07,0,0,1,9.51-.07l12.09,12.27a6.43,6.43,0,0,1,2,4.8A6.35,6.35,0,0,1,240.61,87.9Zm-84,22.25v8.17l-3.5,1.58,1.19,1.19,3.9-1.74v-7.61Z"/></g></g></svg>