<svg xmlns="http://www.w3.org/2000/svg" viewBox="0 0 241.61 230.65"><defs><style>.cls-1{fill:#010101;}.cls-2{fill:#0d9fd4;}</style></defs><title>Asset 4</title><g id="Layer_2" data-name="Layer 2"><g id="Layer_1-2" data-name="Layer 1"><path class="cls-1" d="M105.12,85.47c-.91-.23-1.82-.46-2.75-.65s-2-.43-3.05-.61c1-.37,1.92-.75,2.84-1.2s1.7-.79,2.52-1.24a43.49,43.49,0,1,0-41.1,0c.8.44,1.62.86,2.46,1.23s1.89.83,2.87,1.2c-1,.19-2,.39-3.06.63s-1.83.42-2.72.65A84.25,84.25,0,0,0,0,166.93a4.22,4.22,0,1,0,8.44,0,75.63,75.63,0,0,1,124.2-58l8.47-3.78A83.64,83.64,0,0,0,105.12,85.47Zm-21-6.94a35,35,0,1,1,35.06-35.05A35.08,35.08,0,0,1,84.1,78.53Z"/><path class="cls-2" d="M189.88,153.15a4.06,4.06,0,0,0,8.05-1.09,31,31,0,1,0-35,34.84,1.84,1.84,0,0,0,.71.12,4.06,4.06,0,0,0,4-3.52,4.12,4.12,0,0,0-3.49-4.53,22.91,22.91,0,1,1,25.74-25.82Z"/><path class="cls-2" d="M213.9,141.67l.18-.08-.3-.9a48.61,48.61,0,0,0-2.34-5.74L211,134l-.21.09a48.85,48.85,0,0,0-87.17,0l-.18-.08L123,135a49.1,49.1,0,0,0-2.33,5.73l-.3.89.15.07A48.8,48.8,0,0,0,163.18,205c1.36.1,2.82.16,4.38.15q2,0,3.72-.15c1.24-.09,2.59-.24,4-.48s2.63-.5,3.9-.83l-2.65-7.7a39.83,39.83,0,0,1-9.35,1.2,40.89,40.89,0,1,1,40.89-40.89,39.4,39.4,0,0,1-1.15,9.38l7.69,2.57a48.24,48.24,0,0,0,1.53-12A48.74,48.74,0,0,0,213.9,141.67Z"/><path class="cls-1" d="M240.82,178a3.79,3.79,0,0,0-1.93-1.37l-24.26-8.38-7.69-2.57-38.43-13.23a4.06,4.06,0,0,0-5.15,5.17L176.55,196l2.65,7.7L187.54,228a3.93,3.93,0,0,0,3.7,2.66h.13a4.07,4.07,0,0,0,3.67-2.4l13.62-30.55,30.51-13.6a4.47,4.47,0,0,0,2.44-3.85A4.1,4.1,0,0,0,240.82,178Zm-36.88,13a3.86,3.86,0,0,0-2.07,2.06l-10,22.61-5.29-15.39L173.7,162.78l52.83,18.16Z"/></g></g></svg>