<svg xmlns="http://www.w3.org/2000/svg" viewBox="0 0 211.36 194.55"><defs><style>.cls-1{fill:#010101;}.cls-2{fill:#d11717;}</style></defs><title>Asset 5</title><g id="Layer_2" data-name="Layer 2"><g id="Layer_1-2" data-name="Layer 1"><path class="cls-1" d="M129,106.18A78.78,78.78,0,0,0,87.57,94.57,79.86,79.86,0,0,0,7.8,174.34a3.9,3.9,0,1,1-7.8,0A87.68,87.68,0,0,1,87.58,86.76a86.58,86.58,0,0,1,38.07,8.71A41.47,41.47,0,0,0,129,106.18Z"/><path class="cls-1" d="M87.57,0a45,45,0,1,0,13.88,87.86h0A45,45,0,0,0,87.57,0Zm0,82.24A37.22,37.22,0,1,1,124.79,45,37.26,37.26,0,0,1,87.57,82.24Z"/><path class="cls-1" d="M180,153.79H155.89a6,6,0,0,0-5.94,6v10.83a6,6,0,0,0,5.94,5.94H180a6,6,0,0,0,5.95-5.94V159.74A6,6,0,0,0,180,153.79Zm-14.4,18.11h-9.73a1.36,1.36,0,0,1-1.33-1.33V159.74a1.34,1.34,0,0,1,1.33-1.33h9.73Zm15.7-1.33a1.35,1.35,0,0,1-1.3,1.33h-9.76V158.41H180a1.3,1.3,0,0,1,1.3,1.33Z"/><path class="cls-1" d="M199.36,148.93a12.22,12.22,0,0,0,12-12.19v-.16a.5.5,0,0,0,0-.19,1.79,1.79,0,0,0-.11-.51.57.57,0,0,0-.09-.26,1.63,1.63,0,0,0-.38-.6l0,0-13.22-13a2.32,2.32,0,0,0-1.62-.69H163.7a2.36,2.36,0,0,0-2.33,2.33,2.31,2.31,0,0,0,2.33,2.34h.72l2.73,8.31H134.82l2.72-8.31h.74a2.32,2.32,0,0,0,2.3-2.34,2.35,2.35,0,0,0-2.3-2.33H106.06a2.24,2.24,0,0,0-1.61.69L91.32,134.88a.61.61,0,0,0-.15.17,2,2,0,0,0-.36.57l-.09.2a2.08,2.08,0,0,0-.11.54.73.73,0,0,0,0,.22v.17a12.27,12.27,0,0,0,12,12.18,8.72,8.72,0,0,0,1.14-.07v41.08H92.89a2.33,2.33,0,0,0-2.31,2.33,2.3,2.3,0,0,0,2.31,2.28H209a2.31,2.31,0,1,0,0-4.61H198.19V148.86A11.48,11.48,0,0,0,199.36,148.93Zm-4.41-23,8.44,8.31H191l-5.33-8.31Zm-7.9,13a7.27,7.27,0,0,1-14.05,0Zm-6.92-13,5.33,8.31H172l-2.74-8.31Zm-12.45,13a7.27,7.27,0,0,1-14.05,0Zm-19.36,0a7.27,7.27,0,0,1-14,0Zm-26.47-13h10.8l-2.71,8.31H116.49Zm7.11,13a7.27,7.27,0,0,1-14.06,0Zm-21.94-13h9.3L111,134.24H98.56Zm-4.43,18.39a7.45,7.45,0,0,1-7-5.41h14A7.44,7.44,0,0,1,102.59,144.32Zm35.18,45.62H120.63V176.51h17.14Zm0-18H120.63V159.74a1.31,1.31,0,0,1,1.32-1.33h14.52a1.3,1.3,0,0,1,1.3,1.33Zm55.81,18H142.41v-30.2a6,6,0,0,0-5.94-6H122a6,6,0,0,0-6,6v30.2h-7.62V147.38a12.2,12.2,0,0,0,3.89-3.53,11.76,11.76,0,0,0,19.36,0,11.76,11.76,0,0,0,19.37,0,11.73,11.73,0,0,0,19.34,0,11.76,11.76,0,0,0,19.36,0,12,12,0,0,0,3.89,3.53v42.56Zm-1.25-51h14.06a7.27,7.27,0,0,1-14.06,0Z"/><path class="cls-2" d="M151,74.07a20.34,20.34,0,0,0-20.3,20.33c0,13.95,15.37,33.17,18.45,36.88l.08.09a2.46,2.46,0,0,0,1.77.81,2.43,2.43,0,0,0,1.74-.81l0,0,.18-.23c4.3-5.26,18.32-23.45,18.32-36.71A20.32,20.32,0,0,0,151,74.07Zm0,52.05c-3.39-4.29-15.69-20.61-15.69-31.72a15.66,15.66,0,1,1,31.32,0C166.62,105.28,155.14,120.85,151,126.12Z"/><path class="cls-2" d="M151,85a9.58,9.58,0,1,0,9.55,9.61A9.62,9.62,0,0,0,151,85Zm0,14.55a4.94,4.94,0,1,1,4.91-4.94A5,5,0,0,1,151,99.5Z"/></g></g></svg>