<svg xmlns="http://www.w3.org/2000/svg" viewBox="0 0 196.93 242.93"><defs><style>.cls-1{fill:#010101;}.cls-2{fill:#d3d3d3;}</style></defs><title>Asset 7</title><g id="Layer_2" data-name="Layer 2"><g id="Layer_1-2" data-name="Layer 1"><path class="cls-1" d="M177.76,208.07l-36.13-59.46c-.1-.16-.3-.21-.4-.37s-.18-.31-.28-.47l-.32-.08c-.22-.19-.51-.4-.74-.58s-.48-.26-.72-.32l-.84-.2c-.28.07-.54,0-.82.06a1.65,1.65,0,0,0-.83.07,8.37,8.37,0,0,0-.83.34c-.06,0-.21.09-.21.09-.33.18-.36.31-.52.41l-.47.29A73.23,73.23,0,1,1,81.16,23.64a4.48,4.48,0,0,0,4.41-4.46,4.58,4.58,0,0,0-4.45-4.47A82.12,82.12,0,0,0,62.6,176.59a80.88,80.88,0,0,0,39.72-.31L136.68,233a21,21,0,0,0,12.78,9.33A20.8,20.8,0,0,0,165,240l5.78-3.45a20.87,20.87,0,0,0,9.34-12.85A20.63,20.63,0,0,0,177.76,208.07Zm-6.2,13.48a11.88,11.88,0,0,1-5.37,7.34l-5.71,3.46a12.06,12.06,0,0,1-16.19-3.95L111,173.54A80.56,80.56,0,0,0,136.91,158l33.23,54.72A11.53,11.53,0,0,1,171.56,221.55Z"/><path class="cls-2" d="M56.87,55.4a49.26,49.26,0,0,1,13.3-5.54,4.52,4.52,0,0,0,3.22-5.42A4.41,4.41,0,0,0,68,41.24,55.64,55.64,0,0,0,52.31,47.8,57.41,57.41,0,0,0,106.14,149a4.44,4.44,0,0,0-3.7-8.06A48.54,48.54,0,0,1,56.87,55.4Z"/><path class="cls-1" d="M192.54,128.57a4.4,4.4,0,0,1-4.39-4.39,54.42,54.42,0,0,0-108.84,0,4.39,4.39,0,0,1-8.78,0,63.2,63.2,0,0,1,126.4,0A4.38,4.38,0,0,1,192.54,128.57Z"/><path class="cls-1" d="M133.73,0a33.28,33.28,0,0,0-15.3,62.84,33.23,33.23,0,0,0,30.61,0h0A33.29,33.29,0,0,0,133.73,0Zm0,57.8a24.51,24.51,0,1,1,24.52-24.51A24.54,24.54,0,0,1,133.73,57.8Z"/></g></g></svg>