<svg xmlns="http://www.w3.org/2000/svg" viewBox="0 0 247.08 212.88"><defs><style>.cls-1{fill:#010101;}.cls-2{fill:#3a8f35;}</style></defs><title>Asset 2</title><g id="Layer_2" data-name="Layer 2"><g id="Layer_1-2" data-name="Layer 1"><path class="cls-1" d="M148,110.44H134.61A82.39,82.39,0,0,0,95.78,97.92c-1.72-.11-3.44-.17-5.16-.17s-3.45,0-5.16.17A82.87,82.87,0,0,0,7.84,180.54a3.92,3.92,0,1,1-7.84,0A90.78,90.78,0,0,1,67.77,92.83q2-.54,4-1c1.63-.34,3.28-.65,5-.91a91,91,0,0,1,27.7,0c1.67.25,3.33.56,5,.91,1.35.28,2.7.6,4,1A90.09,90.09,0,0,1,148,110.44Z"/><path class="cls-1" d="M90.63,0A46.53,46.53,0,0,0,68.42,87.43c1.19.65,2.41,1.25,3.67,1.79A44.48,44.48,0,0,0,76.77,91a91,91,0,0,1,27.7,0,44,44,0,0,0,4.7-1.75,39.19,39.19,0,0,0,3.68-1.81A46.53,46.53,0,0,0,90.63,0Zm4.72,84.93a37.36,37.36,0,0,1-9.45,0,38.7,38.7,0,1,1,9.45,0Z"/><path class="cls-2" d="M244.27,118.51H129.41a2.81,2.81,0,0,0-2.82,2.81v12.33l-6.49-.72a2.86,2.86,0,0,0-3.09,2.49l-6.81,61.71a2.83,2.83,0,0,0,.6,2.09,2.75,2.75,0,0,0,1.89,1l114.24,12.62h.24a2.71,2.71,0,0,0,1.75-.62,2.89,2.89,0,0,0,1.05-1.89l2.28-20.6h12a2.81,2.81,0,0,0,2.81-2.81V121.32A2.81,2.81,0,0,0,244.27,118.51ZM224.68,207,116.1,195l6.2-56.15,4.29.48V187a2.81,2.81,0,0,0,2.82,2.81h97.17Zm16.78-22.81H132.22v-60H241.46Z"/><path class="cls-2" d="M234,139a7.45,7.45,0,0,1-7.45-7.44,2.81,2.81,0,0,0-2.81-2.81H149.92a2.82,2.82,0,0,0-2.82,2.81,7.45,7.45,0,0,1-7.44,7.44,2.81,2.81,0,0,0-2.81,2.81v24.62a2.81,2.81,0,0,0,2.81,2.81,7.45,7.45,0,0,1,7.44,7.44,2.82,2.82,0,0,0,2.82,2.82h73.84a2.81,2.81,0,0,0,2.81-2.82,7.45,7.45,0,0,1,7.45-7.44,2.81,2.81,0,0,0,2.81-2.81V141.83A2.81,2.81,0,0,0,234,139Zm-2.82,24.92a13.09,13.09,0,0,0-9.95,9.95H152.43a13.08,13.08,0,0,0-10-9.95v-19.6a13.08,13.08,0,0,0,10-10h68.82a13.09,13.09,0,0,0,9.95,10Z"/><path class="cls-2" d="M213.51,144.15a10,10,0,1,0,10,10A10,10,0,0,0,213.51,144.15Zm0,14.36a4.37,4.37,0,1,1,4.36-4.37A4.37,4.37,0,0,1,213.51,158.51Z"/><path class="cls-2" d="M162.22,144.15a10,10,0,1,0,10,10A10,10,0,0,0,162.22,144.15Zm0,14.36a4.37,4.37,0,1,1,4.37-4.37A4.37,4.37,0,0,1,162.22,158.51Z"/><path class="cls-2" d="M186.82,151.33c-2.91,0-4.27-1.15-4.27-3.62,0-2,1.92-3.62,4.27-3.62a4.31,4.31,0,0,1,4,2.42,2.82,2.82,0,0,0,5.19-2.19,9.6,9.6,0,0,0-6.4-5.47v-1.11a2.81,2.81,0,1,0-5.62,0v1.11a9.37,9.37,0,0,0-7.08,8.86c0,4.27,2.59,9.25,9.9,9.25,2.93,0,4.29,1.15,4.29,3.62,0,2-1.92,3.62-4.27,3.62a4.29,4.29,0,0,1-4-2.42,2.81,2.81,0,0,0-5.19,2.18,9.58,9.58,0,0,0,6.37,5.47v1.12a2.81,2.81,0,0,0,5.62,0v-1.11a9.37,9.37,0,0,0,7.11-8.87C196.74,156.31,194.14,151.33,186.82,151.33Z"/></g></g></svg>